<svg width="1440" height="228" viewBox="0 0 1440 228" fill="none" xmlns="http://www.w3.org/2000/svg">
<path opacity="0.25" d="M684.795 0.00537124C685.376 -0.00512513 685.859 -0.000978073 686.259 0.0244001C686.643 0.0488006 686.967 0.0884717 687.344 0.186026C687.923 0.335761 688.437 0.554737 688.971 1.04026C690.152 2.11334 690.236 3.70669 689.269 4.85947C687.787 6.62566 685.006 8.04172 681.073 9.234L680.169 9.50027L678.958 9.85118L677.554 10.2545L675.344 10.8822L672.173 11.7672L667.913 12.9301L663.113 14.2143L654.399 16.5052L637.07 21.026L631.543 22.488L626.753 23.7759L622.896 24.8352L619.665 25.743C618.171 26.1672 616.712 26.5886 615.233 27.0219L612.143 27.9338L608.45 29.031L601.671 31.0636L595.507 32.935L590.5 34.471L582.712 36.887L576.535 38.823L564.53 42.6238L548.899 47.6209L511.049 59.792L492.122 65.9017L480.291 69.7387L467.22 73.9987L458.332 76.9109L448.121 80.2749L438.368 83.51L433.65 85.0838L427.512 87.1408L420.069 89.6516L417.158 90.6388L411.441 92.5869L405.854 94.5034L400.385 96.3925L395.022 98.2586L389.752 100.106L384.564 101.939L378.174 104.216L373.123 106.032L368.114 107.847L363.135 109.666L359.089 111.154L354.374 112.9L348.859 114.96L345.402 116.262L341.981 117.558L338.597 118.85L335.25 120.138L331.939 121.42C331.39 121.633 330.843 121.847 330.297 122.06L327.041 123.335L323.821 124.606C323.287 124.817 322.755 125.029 322.224 125.24L319.058 126.504L315.929 127.763L312.835 129.019L309.777 130.27L306.756 131.517L303.77 132.759L300.821 133.998L297.907 135.232L295.028 136.463C294.552 136.668 294.077 136.872 293.603 137.077L290.778 138.301L287.989 139.522L285.236 140.74C284.78 140.942 284.326 141.145 283.873 141.347L281.173 142.559L278.508 143.767L275.879 144.971L273.285 146.173L270.727 147.37C270.303 147.57 269.881 147.769 269.461 147.968L266.955 149.161L264.484 150.351L262.049 151.537C260.84 152.13 259.644 152.721 258.462 153.311L256.114 154.49C255.726 154.686 255.339 154.883 254.953 155.079L252.658 156.253C252.278 156.449 251.9 156.644 251.523 156.839L249.28 158.01C247.425 158.984 245.607 159.955 243.824 160.924L241.703 162.085C241.352 162.279 241.003 162.472 240.655 162.665L238.585 163.822C236.532 164.979 234.532 166.131 232.582 167.28L230.65 168.429C230.331 168.62 230.013 168.811 229.697 169.002L227.817 170.147C225.642 171.482 223.538 172.812 221.503 174.139C212.47 180.03 207.583 186.476 205.731 193.876C204.689 198.042 204.564 202.088 205.218 207.441L205.355 208.494C205.379 208.672 205.404 208.852 205.43 209.033L205.595 210.139L205.779 211.283L205.982 212.468C206.017 212.669 206.054 212.872 206.091 213.077L206.321 214.327C206.574 215.673 207.738 217.056 210.23 218.52L210.998 218.966L211.487 219.244L211.961 219.505L212.423 219.751L212.877 219.982C212.953 220.019 213.028 220.056 213.103 220.092L213.551 220.301C213.626 220.334 213.701 220.367 213.775 220.4L214.226 220.588L214.681 220.762C216.059 221.265 217.554 221.589 219.572 221.782L220.265 221.842L221 221.892L221.78 221.933L222.609 221.966C222.751 221.97 222.896 221.975 223.043 221.979L223.951 221.999L224.917 222.012L225.943 222.017L227.194 222.015L228.197 222.008L230.36 221.98L232.751 221.936L239.606 221.773L247.122 221.563L252.387 221.389L255.947 221.252L258.154 221.157L260.739 221.032L263.613 220.872L266.266 220.7L267.928 220.577L269.902 220.414L271.408 220.275L272.861 220.128L274.268 219.972L275.3 219.849L276.651 219.676L277.652 219.54L278.959 219.352L279.618 219.251L281.229 218.981L284.515 218.396L296.393 216.199L309.878 213.698L313.335 213.076L326.197 210.802L334.536 209.31L343.488 207.687L349.853 206.517L357.948 205.005L364.733 203.714L370.377 202.621L375.905 201.533L386.748 199.374L393.896 197.943L413.313 194.025L431.097 190.398L451.412 186.219L486.187 179.009L531.526 169.555L614.929 152.047L772.932 118.761L834.532 105.857L864.167 99.6869L887.54 94.8415L889.972 94.3429L894.017 93.5207L902.845 91.7585L913.02 89.7758L921.041 88.2399L934.928 85.6148L1078.96 58.6489L1111.99 52.5127L1134.35 48.3927L1153.92 44.8197L1171.56 41.6269L1183.57 39.471L1198.33 36.8392C1199.32 36.6617 1200.33 36.4837 1201.33 36.3051C1203.67 35.8895 1206 35.483 1208.33 35.0838L1211.33 34.5743L1214.22 34.0919L1216.87 33.6548L1219.54 33.222L1224.03 32.5087L1228.59 31.803L1234.17 30.9625L1237.98 30.4039L1241.87 29.845L1246.85 29.1439L1251.99 28.4376L1256.23 27.867L1260.59 27.2899L1266.22 26.5574L1270.88 25.9609L1276.92 25.1996L1284.51 24.2599L1291.14 23.4517L1300.92 22.2766L1314.42 20.68L1336.55 18.0923L1350.55 16.3928L1356.85 15.653L1361.19 15.1649L1363.52 14.915L1366.3 14.6277L1367.92 14.467L1370.58 14.2156L1373.23 13.9806L1376.45 13.7139L1379.28 13.495L1381.09 13.3638L1383.37 13.2108L1384.99 13.1129L1386.53 13.0299L1387.51 12.983L1388.46 12.9429L1389.82 12.896L1390.69 12.8736L1391.53 12.8585L1392.34 12.8507L1393.11 12.8504L1393.86 12.8577L1394.58 12.8726C1394.69 12.8757 1394.81 12.8792 1394.92 12.883L1395.6 12.9096C1395.71 12.9147 1395.82 12.9202 1395.93 12.9259L1396.56 12.9645C1396.66 12.9717 1396.76 12.9791 1396.86 12.9869L1397.46 13.0377L1398.02 13.0968L1398.56 13.1642C1398.91 13.212 1399.25 13.2654 1399.57 13.3247L1400.03 13.4179C1400.19 13.4504 1400.33 13.4844 1400.48 13.5199L1400.9 13.6308C1401.03 13.6693 1401.17 13.7093 1401.29 13.7508L1401.67 13.8798C1401.73 13.9021 1401.79 13.9248 1401.85 13.9478L1402.19 14.0908C1403.86 14.8289 1404.75 15.9191 1405.17 17.4218L1405.25 17.7278C1405.26 17.7797 1405.27 17.8321 1405.28 17.885L1405.35 18.2077L1405.45 18.9259L1405.47 19.0041L1405.51 19.1556L1405.59 19.4268L1406.02 20.6522L1406.06 20.7463C1406.84 23.1448 1406.64 25.1449 1404.67 27.0602C1399.55 32.0623 1394.65 35.4976 1387.15 38.7199L1386.1 39.1626L1385.09 39.5809L1384.41 39.8562L1383.04 40.4011L1381.65 40.9425L1380.57 41.3494L1379.47 41.7592L1378.34 42.1742L1376.76 42.739L1375.52 43.1741L1373.33 43.9274L1370.96 44.7242L1368.39 45.5744L1363.79 47.0702L1357.76 48.9962L1348.52 51.9398L1344.02 53.3999L1341.33 54.2925L1339.56 54.891L1338.22 55.3518L1337.56 55.5778C1336.7 55.8791 1335.85 56.1813 1334.98 56.4937L1328.78 58.7244L1322.55 60.9825L1317.85 62.6979L1311.52 65.0197L1305.12 67.387L1298.62 69.8064L1292 72.2845L1286.95 74.1857L1280.08 76.7826L1271.26 80.1377L1263.56 83.0774L1262.26 83.566L1260.88 84.0682L1259.43 84.5871L1257.36 85.3103L1255.69 85.8801L1253.3 86.6822L1249.18 88.0389L1232.17 93.5255L1229.73 94.3264L1226.62 95.3588L1224.39 96.1079L1222.26 96.8369L1219.55 97.7798L1217.61 98.4667L1216.37 98.9158L1215.16 99.3581L1213.99 99.7942L1212.84 100.224L1211.74 100.649L1210.13 101.276L1208.6 101.893L1207.62 102.298L1206.66 102.701L1205.73 103.1L1204.83 103.495L1203.96 103.889L1203.11 104.28C1202.97 104.345 1202.83 104.41 1202.69 104.475L1201.88 104.863L1201.09 105.25L1200.3 105.654L1199.5 106.069L1198.75 106.478L1198.04 106.88C1197.92 106.946 1197.81 107.012 1197.69 107.078L1197.04 107.469C1196.72 107.662 1196.42 107.853 1196.13 108.041L1195.58 108.412C1195.4 108.534 1195.23 108.654 1195.06 108.774L1194.59 109.127C1192.76 110.52 1191.88 111.684 1191.93 112.509C1191.95 113.106 1192.5 113.803 1193.62 114.562L1193.97 114.792C1194.16 114.908 1194.36 115.025 1194.57 115.143L1195.01 115.381L1195.49 115.622L1196.01 115.866C1196.19 115.948 1196.37 116.03 1196.56 116.112L1197.15 116.361C1197.25 116.403 1197.36 116.444 1197.46 116.486L1198.11 116.738C1198.33 116.822 1198.56 116.907 1198.79 116.991L1199.52 117.246C1199.64 117.289 1199.76 117.331 1199.89 117.374L1200.67 117.631L1201.5 117.889C1201.78 117.975 1202.07 118.061 1202.36 118.147L1203.26 118.406L1204.21 118.665C1204.37 118.709 1204.53 118.752 1204.7 118.795L1204.85 118.833L1205.19 118.905C1205.25 118.917 1205.31 118.929 1205.37 118.94L1205.79 119.006L1206.25 119.068C1206.33 119.078 1206.41 119.088 1206.49 119.098L1207.03 119.154L1207.61 119.207L1208.24 119.256L1209.28 119.323L1210.44 119.382L1211.27 119.418L1212.61 119.465L1216.66 119.569L1217.89 119.596L1220.4 119.642C1221.24 119.655 1222.08 119.666 1222.94 119.675L1225.51 119.697C1225.94 119.699 1226.37 119.702 1226.8 119.703L1229.41 119.707L1232.04 119.699L1234.69 119.68L1237.36 119.649L1240.03 119.608L1242.71 119.555L1245.39 119.492C1245.84 119.48 1246.29 119.468 1246.73 119.456L1249.41 119.377C1250.3 119.349 1251.19 119.319 1252.08 119.287L1254.74 119.188C1255.19 119.17 1255.63 119.152 1256.07 119.134L1258.7 119.019L1261.32 118.895L1263.91 118.761L1266.47 118.618L1269 118.465L1271.49 118.303C1271.9 118.276 1272.31 118.247 1272.72 118.219L1275.15 118.044C1277.16 117.895 1279.12 117.736 1281.02 117.569L1283.27 117.364C1283.64 117.33 1284 117.295 1284.37 117.259L1286.53 117.042C1287.59 116.932 1288.63 116.819 1289.65 116.703L1291.7 116.46L1295.12 116.039L1299.61 115.462L1303.89 114.897L1310.2 114.043L1318.1 112.947L1324.86 111.994L1336.73 110.291L1354.16 107.748L1371.26 105.215L1400.53 100.825L1431.01 96.1981L1450.27 93.2521L1500.89 85.454L1577.08 73.6608L1581.62 72.9883L1587.75 72.0926L1593.96 71.2008L1598.65 70.5364L1604.95 69.6587L1611.27 68.7934L1617.59 67.9433L1622.32 67.3177L1627.04 66.7037L1631.73 66.1026L1636.38 65.5157L1639.47 65.1329L1644.05 64.5726L1648.57 64.0298L1651.56 63.6785L1654.51 63.3359L1658.87 62.8393L1663.15 62.3647L1667.34 61.9133L1670.08 61.6259L1672.77 61.3497L1676.72 60.9575L1680.55 60.5928L1683.03 60.3655L1685.45 60.1515L1687.67 59.9619L1691.66 59.63L1695.42 59.3274L1698.97 59.0538L1702.34 58.8088L1705.55 58.592L1707.09 58.494L1709.35 58.3598L1710.82 58.2789L1712.26 58.2048L1713.67 58.1373L1715.06 58.0765L1717.11 57.9976L1719.13 57.9334L1720.46 57.8987L1722.43 57.8585L1723.74 57.8396L1725.69 57.823L1727 57.8197L1728.3 57.8225L1729.62 57.8313L1731.6 57.8559L1733.61 57.8938L1734.97 57.9265C1737.2 57.9843 1739.14 58.7582 1739.58 60.7155L1739.64 61.054L1739.69 61.1986L1739.75 61.373L1739.84 61.5869L1740.03 62.0024L1740.37 62.7114C1741.97 66.0823 1741.81 68.6737 1738.31 71.0342L1738.01 71.234L1737.41 71.6295L1736.79 72.0206C1736.69 72.0855 1736.58 72.1503 1736.48 72.215L1735.84 72.602C1735.73 72.6664 1735.62 72.7307 1735.51 72.795L1734.84 73.181L1734.16 73.5679L1733.44 73.9572C1733.32 74.0223 1733.2 74.0876 1733.08 74.153L1732.32 74.5482L1731.54 74.949L1730.72 75.3567L1729.87 75.7727L1728.98 76.1984L1728.06 76.635L1726.59 77.3134L1725.02 78.024L1723.35 78.7713L1715.78 82.0728L1714.23 82.7569L1712.84 83.3837L1711.48 84.0068L1710.53 84.4505C1710.38 84.5236 1710.23 84.5963 1710.07 84.6685L1709.19 85.0973L1708.35 85.5165L1707.54 85.9262C1707.41 85.9937 1707.28 86.0608 1707.16 86.1276L1706.41 86.5235L1705.71 86.9105L1705.04 87.2887C1704.93 87.3511 1704.82 87.413 1704.72 87.4746L1704.11 87.8401C1704.01 87.9003 1703.92 87.9602 1703.82 88.0197L1703.27 88.3729C1703.18 88.4311 1703.09 88.4889 1703.01 88.5465L1702.51 88.8877C1700.6 90.2374 1699.57 91.4031 1699.31 92.4414L1699.29 92.5229L1703.58 92.5748L1709.92 92.67L1713.07 92.703L1714.78 92.7124L1716.89 92.7121L1718.85 92.6961L1720.24 92.6732L1721.57 92.6407L1722.87 92.5981L1724.15 92.545L1725.38 92.4831L1726.51 92.41L1727.25 92.3529L1727.99 92.288L1728.72 92.2141L1729.48 92.1303L1730.26 92.0354L1731.08 91.9286L1732.41 91.7435L1733.37 91.6021L1738.06 90.8816L1739.43 90.6836L1740.97 90.4823L1742 96.419L1740.82 96.5723L1739.39 96.7763L1735.07 97.4401L1733.51 97.6712L1732.55 97.8062L1731.65 97.9272L1730.78 98.0352L1729.95 98.1313L1729.14 98.2164C1729 98.2298 1728.87 98.2427 1728.74 98.2553L1727.93 98.326L1727.12 98.3885C1726.98 98.3983 1726.85 98.4077 1726.71 98.4169L1725.87 98.4689L1724.99 98.5151L1724.09 98.556L1722.75 98.608L1721.38 98.6492L1719.98 98.68L1719.01 98.6949L1717 98.712L1715.38 98.714L1713.06 98.7033L1710.51 98.6781L1700.29 98.5328L1698.81 98.5199C1698.56 98.5181 1698.3 98.5142 1698.06 98.5079L1697.35 98.4823C1697.23 98.4768 1697.12 98.4708 1697.02 98.4641C1696.64 98.4402 1696.31 98.4089 1696.01 98.3615C1695.74 98.32 1695.49 98.2672 1695.22 98.1831C1694.97 98.1047 1694.72 98.0059 1694.46 97.8639C1693.95 97.5844 1693.5 97.2044 1693.17 96.6364C1690.98 92.8597 1692.21 89.1501 1695.99 85.835C1697.76 84.2791 1700.07 82.7889 1703.12 81.1784L1704.11 80.6656C1704.78 80.3208 1705.49 79.9697 1706.24 79.6108L1707.38 79.0662L1708.58 78.5083L1709.49 78.0966L1710.43 77.6709L1712.51 76.7486L1719.43 73.7331L1721.58 72.7784L1722.58 72.326L1724 71.6753L1724.89 71.2583L1726.16 70.6552L1726.96 70.2664L1727.72 69.8868L1728.45 69.5153L1729.15 69.1507L1729.82 68.7918L1730.47 68.4375L1731.09 68.0866C1731.19 68.0283 1731.29 67.9702 1731.39 67.9121L1731.98 67.5641C1732.07 67.5062 1732.17 67.4483 1732.26 67.3903L1732.82 67.0427C1732.91 66.9846 1733.01 66.9266 1733.1 66.8684L1733.63 66.5184L1734.12 66.191C1734.25 66.0847 1734.27 65.9989 1734.15 65.7159L1734.06 65.5207L1733.38 64.0952L1733.29 63.888L1732.12 63.8659L1730.18 63.8378L1728.26 63.8228L1726.35 63.8213L1725.08 63.8278L1723.17 63.8489L1721.24 63.884L1719.3 63.933L1717.99 63.9737L1716.66 64.0207L1714.64 64.1033L1712.57 64.2005L1710.44 64.3126L1708.25 64.4397L1706.74 64.5329L1703.63 64.7398L1700.36 64.9743L1697.78 65.1687L1694.18 65.4527L1689.37 65.8484L1686.23 66.1154L1683.95 66.3163L1680.43 66.6398L1678.03 66.8698L1675.57 67.1109L1673.07 67.3626L1670.53 67.6248L1666.63 68.0369L1662.65 68.4706L1658.59 68.9248L1654.45 69.3984L1650.25 69.8902L1647.41 70.2278L1643.12 70.7477L1640.23 71.1029L1635.85 71.6478L1629.97 72.3952L1625.53 72.9699L1621.07 73.5557L1615.1 74.3517L1609.13 75.1628L1604.49 75.8018C1597.57 76.762 1590.71 77.7431 1584.01 78.7265L1577.17 79.7458L1498.38 91.9408L1440.41 100.861L1410.81 105.365L1383.34 109.504L1367.13 111.922L1349.6 114.507L1336.19 116.456L1324.12 118.181L1315.28 119.421L1309.05 120.277L1304.17 120.933L1301.16 121.331L1298.64 121.658L1294.55 122.174L1291.63 122.528C1290.62 122.648 1289.57 122.766 1288.51 122.88L1286.34 123.105L1284.1 123.322L1281.81 123.531C1280.65 123.633 1279.47 123.732 1278.27 123.828L1275.85 124.015L1273.37 124.194C1272.96 124.222 1272.54 124.251 1272.12 124.279L1269.59 124.444C1269.17 124.471 1268.74 124.497 1268.31 124.523L1265.72 124.674C1265.29 124.698 1264.86 124.722 1264.42 124.745L1261.79 124.882C1260.91 124.926 1260.02 124.968 1259.14 125.008L1256.46 125.125L1253.77 125.231L1251.06 125.328L1248.35 125.413C1247.89 125.427 1247.44 125.44 1246.99 125.452L1244.26 125.522L1241.54 125.581C1241.09 125.59 1240.64 125.598 1240.18 125.606L1237.47 125.648C1236.57 125.661 1235.67 125.671 1234.77 125.679L1232.08 125.699L1229.41 125.707L1226.76 125.703L1224.14 125.687L1221.54 125.659L1218.98 125.619C1218.56 125.611 1218.14 125.603 1217.72 125.594L1212.84 125.476L1211.8 125.443L1210.81 125.407L1209.87 125.367L1208.99 125.323L1208.16 125.273L1207.38 125.219C1207.13 125.2 1206.88 125.179 1206.64 125.158L1205.95 125.091L1205.3 125.017C1205.09 124.991 1204.89 124.964 1204.69 124.935L1204.11 124.846C1203.93 124.815 1203.75 124.782 1203.57 124.748L1203.07 124.641C1202.9 124.604 1202.75 124.565 1202.59 124.525L1202.03 124.375L1200.93 124.073C1199.32 123.617 1197.82 123.146 1196.44 122.657L1195.54 122.329C1188.63 119.738 1185.04 116.664 1184.84 112.759C1184.63 108.441 1188.65 104.681 1196.16 100.762L1197.08 100.291L1197.9 99.8798L1198.75 99.468L1199.62 99.0558L1200.51 98.6427L1201.43 98.2283L1202.38 97.8121L1203.35 97.3938L1204.34 96.9729L1205.89 96.3358L1206.96 95.9066L1208.06 95.4734L1209.19 95.0357L1210.95 94.3698L1212.78 93.6916L1214.04 93.2318L1216 92.5296L1217.36 92.0526L1219.46 91.3227L1220.91 90.8258L1223.93 89.8056L1226.3 89.0156L1228.78 88.2028L1236.46 85.7198L1246.78 82.3922L1250.06 81.3131L1252.45 80.515L1254.11 79.9501L1256.17 79.236L1257.61 78.7262L1258.97 78.2351L1260.25 77.7599L1261.06 77.4505L1266.54 75.3539L1273.69 72.6339L1278.92 70.6469L1285.77 68.063L1292.46 65.5476L1300.66 62.4899L1307.1 60.1047L1313.46 57.7666L1318.18 56.04L1324.44 53.7684L1329.11 52.084L1333.21 50.6133L1335.52 49.8028L1337.55 49.1058L1340.47 48.1289L1344.7 46.7509L1351.05 44.719L1359.31 42.0896L1364.09 40.548L1367.26 39.5096L1369.66 38.7081L1371.87 37.9547L1373.52 37.3802L1375.08 36.8255L1377.28 36.0202L1378.33 35.625L1379.35 35.2322L1381.02 34.5771L1382.32 34.0472L1383.29 33.6432C1390.07 30.8054 1394.34 27.9085 1398.88 23.5553L1399.32 23.1294C1399.38 23.0689 1399.41 23.0359 1399.39 22.9155L1399.36 22.7882L1399.27 22.4817L1399.06 21.8608L1398.79 21.1272L1398.69 20.8064L1398.6 20.5143L1398.53 20.2162L1398.47 19.9548L1398.42 19.6971L1398.36 19.2511L1398.19 19.2149L1397.95 19.1674L1397.78 19.1386L1397.42 19.0852C1397.36 19.0768 1397.29 19.0686 1397.23 19.0606L1396.82 19.0155L1396.38 18.9761L1395.9 18.9423L1395.39 18.9143L1394.85 18.8921L1394.27 18.8758L1393.66 18.8654L1392.67 18.8613C1392.56 18.8616 1392.44 18.8621 1392.32 18.8629L1391.6 18.8709L1390.84 18.885L1389.63 18.9181L1388.34 18.9656L1386.95 19.0277L1385.48 19.1047L1383.92 19.1967L1381.69 19.3433L1380.51 19.427L1378.75 19.5598L1375.52 19.817L1372.38 20.0875L1369.76 20.3287L1366.56 20.6439L1362.64 21.057L1359.02 21.459L1353.69 22.0779L1345.93 23.0109L1333.13 24.5572L1317.42 26.386L1307.4 27.565L1296.44 28.8729L1290.5 29.591L1282 30.6331L1277.92 31.14L1272.65 31.8028L1266.32 32.6129L1260.26 33.4057L1255.57 34.0299L1249.91 34.8004L1246.61 35.2589L1241.25 36.019L1238.11 36.4739L1234 37.0806L1230.97 37.5367L1226.99 38.1478L1225.03 38.455L1222.1 38.9187L1217.27 39.7009L1213.44 40.3369L1208.67 41.1479L1206.76 41.478L1203.78 42.0009L1190.89 44.295L1179.22 46.3837L1162.94 49.3199L1151.01 51.486L1132.46 54.8786L1102.8 60.3576L1068.63 66.721L964.604 86.209L931.577 92.3925L918.515 94.8729L907.341 97.0347L898.919 98.7018L894.592 99.5735L889.215 100.672L857.39 107.274L808.924 117.391L741.57 131.541L572.851 167.079L534.222 175.172L470.498 188.446L433.104 196.16L417.091 199.428L402.681 202.344L392.444 204.4L383.535 206.179L374.761 207.92L368.213 209.197L362.45 210.301L357.51 211.234L350.337 212.569L343.909 213.748L336.025 215.176L326.43 216.892L312.802 219.304L304.941 220.75L287.877 223.92L284.758 224.486L282.253 224.927L280.692 225.185L279.512 225.36L277.817 225.595L276.097 225.814L274.333 226.018L272.881 226.171L271.761 226.28L270.22 226.418L268.618 226.549L266.945 226.673L265.192 226.79L262.395 226.955L260.406 227.059L257.214 227.206L253.745 227.345L249.971 227.477L243.672 227.667L235.935 227.866L232.986 227.929L230.815 227.966L228.321 227.994L226.934 228L225.624 227.997L224.388 227.985L223.602 227.971L222.846 227.953L222.119 227.93L221.419 227.902L220.744 227.869L219.779 227.81L219.164 227.763L218.571 227.711L217.999 227.653L217.446 227.59L216.911 227.52L216.394 227.444L215.892 227.361L215.404 227.272L214.93 227.176L214.469 227.073L214.018 226.963L213.577 226.846L213.145 226.721L212.72 226.589L212.301 226.449L211.888 226.301L211.478 226.145L211.071 225.981L210.665 225.809L210.056 225.534L209.444 225.239L209.032 225.031L208.405 224.702L207.979 224.471L207.104 223.98L206.422 223.586L206.189 223.449C202.213 221.114 199.904 218.37 199.321 215.271L199.195 214.593L198.957 213.272L198.739 211.994L198.541 210.757C198.51 210.554 198.479 210.353 198.45 210.153L198.283 208.973C197.422 202.581 197.512 197.765 198.797 192.633C201.003 183.818 206.827 176.136 217.177 169.386C219.843 167.648 222.623 165.905 225.517 164.156L227.464 162.989C229.755 161.626 232.116 160.26 234.547 158.89L236.647 157.714C239.824 155.949 243.117 154.177 246.526 152.396L248.817 151.208C249.97 150.613 251.137 150.017 252.317 149.42L254.695 148.226L257.107 147.028L259.554 145.828L262.036 144.624C262.452 144.424 262.87 144.223 263.29 144.022L265.824 142.814L268.394 141.603L270.999 140.39L273.639 139.173L276.314 137.952L279.025 136.729C279.934 136.32 280.85 135.911 281.771 135.502L284.553 134.271C285.019 134.066 285.487 133.861 285.957 133.655L288.792 132.419C289.267 132.213 289.744 132.006 290.222 131.8L293.111 130.558L296.035 129.313L298.995 128.064L301.991 126.812L305.023 125.555L308.09 124.294L311.194 123.029L314.334 121.76L317.51 120.486L320.722 119.209L323.97 117.926L327.255 116.64L330.576 115.349L333.933 114.053L337.327 112.752L340.758 111.447L344.225 110.137L347.729 108.821L350.847 107.658L354.861 106.169L358.796 104.719L362.739 103.274L368.019 101.353L373.338 99.4336L377.363 97.9923L381.423 96.547L385.526 95.0957L391.073 93.1473L395.298 91.6735L401.03 89.6875L405.411 88.1797L411.372 86.1406L417.484 84.0644L422.176 82.4798L428.586 80.3263L435.186 78.1219L443.725 75.2868L452.612 72.3544L461.875 69.3147L473.525 65.5118L487.917 60.8395L505.512 55.156L551.524 40.3639L563.673 36.4867L574.441 33.0807L582.184 30.6577L588.193 28.7967L593.377 27.2067L597.59 25.926L601.795 24.6583L605.702 23.4889L609.668 22.3102L612.71 21.4121L616.14 20.4169L618.568 19.7269L621.506 18.907L625.573 17.7955L631.217 16.2858L639.239 14.1768L656.966 9.55218L663.496 7.82108L578.43 17.8348L556.772 20.406L536.165 22.8779L517.652 25.131L501.729 27.1029L488.74 28.74L480.257 29.8245L475.228 30.473L466.145 31.6549L452.491 33.4528L437.696 35.4164L426.731 36.8817L412.891 38.744L394.321 41.2657L375.107 43.9008L353.103 46.9467L315.703 52.1758L274.717 57.9549L159.102 74.33L127.542 78.6579L115.599 80.3308L109.26 81.2409L102.827 82.1886L98.0735 82.9098L93.0696 83.6939L88.8657 84.3766L84.8341 85.0549L81.8902 85.5662L80.8734 85.7461C79.1825 86.0466 77.509 86.351 75.8324 86.6626L73.8176 87.0403L67.7888 88.1817L58.8925 89.8743L53.0333 90.9949L47.2104 92.1134L34.5738 94.5579L21.0748 97.1958L4.41979 100.487L-10.0984 103.385L-23.8563 106.153L-45.2216 110.483L-74.5876 116.482L-192.755 140.765L-211.875 144.65L-222.357 146.768L-224 140.931L-208.366 137.77L-172.746 130.498L-83.177 112.07L-53.2083 105.939L-34.5476 102.146L-19.1216 99.0306L-4.57494 96.1145L5.88113 94.0338L17.7156 91.6964L27.6461 89.7506L39.1041 87.5238L48.9148 85.6329L62.1376 83.1059L74.3101 80.8026L76.3431 80.4279L80.429 79.6949L84.0675 79.0646L86.7276 78.6167L88.9044 78.2579L92.8438 77.6246L95.7789 77.1649L100.728 76.4096L105.359 75.7217L111.796 74.7886L120.525 73.5538L128.48 72.4488L161.727 67.8833L279.442 51.2038L324.562 44.8507L349.179 41.412L373.603 38.029L394.925 35.1058L412.359 32.7399L421.76 31.4737L432.715 30.0067L445.703 28.2787L458.93 26.5305L465.739 25.6368L474.156 24.542L486.616 22.9429L496.299 21.718L511.956 19.7689L521.389 18.6109L539.083 16.4655L563.21 13.5806L596.433 9.65295L662.615 1.86808L664.144 1.6949L665.713 1.52663L667.332 1.36191L669.594 1.14549L671.999 0.929769L674.578 0.711547L679.6 0.31398L681.982 0.133976L682.726 0.0857661C682.86 0.0781678 682.998 0.0708534 683.137 0.0639212L683.985 0.0277005C684.266 0.0176801 684.541 0.00997479 684.795 0.00537124Z" fill="#093F68"/>
</svg>
